<svg version="1.1" xmlns="http://www.w3.org/2000/svg" xmlns:xlink="http://www.w3.org/1999/xlink" width="512px" height="512px" viewBox="0,0,256,256"><g fill="#d7dfe2" fill-rule="nonzero" stroke="none" stroke-width="1" stroke-linecap="butt" stroke-linejoin="miter" stroke-miterlimit="10" stroke-dasharray="" stroke-dashoffset="0" font-family="none" font-weight="none" font-size="none" text-anchor="none" style="mix-blend-mode: normal"><path d="M0,256v-256h256v256z" id="bgRectangle"></path></g><g fill="#2694be" fill-rule="nonzero" stroke="none" stroke-width="1" stroke-linecap="butt" stroke-linejoin="miter" stroke-miterlimit="10" stroke-dasharray="" stroke-dashoffset="0" font-family="none" font-weight="none" font-size="none" text-anchor="none" style="mix-blend-mode: normal"><g transform="translate(-0.1,0) scale(0.5,0.5)"><g><path d="M256,274.1c-75.6,0 -137.1,-61.5 -137.1,-137.1c0,-75.6 61.5,-137 137.1,-137c75.6,0 137.1,61.5 137.1,137.1c0,75.6 -61.5,137 -137.1,137zM256,20.4c-64.3,0 -116.6,52.3 -116.6,116.6c0,64.3 52.3,116.7 116.6,116.7c64.3,0 116.6,-52.3 116.6,-116.6c0,-64.3 -52.3,-116.7 -116.6,-116.7z"></path><path d="M493.9,512c-5.6,0 -10.2,-4.6 -10.2,-10.2c0,-125.5 -102.1,-227.6 -227.6,-227.6c-125.5,0 -227.6,102.1 -227.6,227.6c0,5.6 -4.6,10.2 -10.2,10.2c-5.6,0 -10.2,-4.6 -10.2,-10.2c0,-66.3 25.8,-128.6 72.7,-175.4c46.9,-46.8 109.2,-72.7 175.4,-72.7c66.2,0 128.6,25.8 175.4,72.7c46.8,46.9 72.7,109.2 72.7,175.4c-0.2,5.6 -4.8,10.2 -10.4,10.2z"></path></g></g></g></svg>